<?xml version="1.0" encoding="utf-8"?>
<svg version="1.1" xmlns:xlink="http://www.w3.org/1999/xlink" width="240px" height="35px" viewBox="0 21  240 35" xmlns="http://www.w3.org/2000/svg">
  <path d="M 1 25  A 3 3 0 0 1 3.999999999999999 22 L 236 22  A 3 3 0 0 1 239 25 L 239 52  A 3 3 0 0 1 236 55 L 4 55  A 3 3 0 0 1 1 52 L 1 25  Z " fill-rule="nonzero" fill="#f0f0f0" stroke="none" />
  <path d="M 0.5 25  A 3.5 3.5 0 0 1 3.999999999999999 21.5 L 236 21.5  A 3.5 3.5 0 0 1 239.5 25 L 239.5 52  A 3.5 3.5 0 0 1 236 55.5 L 4 55.5  A 3.5 3.5 0 0 1 0.5 52 L 0.5 25  Z " stroke-width="1" stroke="#797979" fill="none" stroke-opacity="0.9921568627450981" />
</svg>