<?xml version="1.0" encoding="utf-8"?>
<svg version="1.1" xmlns:xlink="http://www.w3.org/1999/xlink" width="240px" height="35px" viewBox="0 117  240 35" xmlns="http://www.w3.org/2000/svg">
  <path d="M 1 121  A 3 3 0 0 1 3.999999999999999 118 L 236 118  A 3 3 0 0 1 239 121 L 239 148  A 3 3 0 0 1 236 151 L 4 151  A 3 3 0 0 1 1 148 L 1 121  Z " fill-rule="nonzero" fill="#ffffff" stroke="none" />
  <path d="M 0.5 121  A 3.5 3.5 0 0 1 3.999999999999999 117.5 L 236 117.5  A 3.5 3.5 0 0 1 239.5 121 L 239.5 148  A 3.5 3.5 0 0 1 236 151.5 L 4 151.5  A 3.5 3.5 0 0 1 0.5 148 L 0.5 121  Z " stroke-width="1" stroke="#797979" fill="none" stroke-opacity="0.9764705882352941" />
</svg>